:SAMPLES-PER-SECOND 30
:FRAME-RANGE 1-2091
:FULLY-SPECIFIED
:DEGREES
850
root  65.1293 38.6814 53.023 1.05977 37.9972 1.89336
RightUpLeg  -18.7296 -0.98438 -2.2016
RightLeg  0.147372 -0.640546 0.867316
RightFoot  -5.2191 -0.405969 6.91733
RightToes  5.38607e-012 1.2921e-014 -6.02303e-014
Spine  -8.34993 -4.05801 -2.66626
Spine1  10.0778 -3.47806 -2.26167
HEad  30.0833 -5.21805 -3.85287
LeftShoulder1  1.64709 -3.16821 -19.1806
LeftArm  11.8026 -19.8344 -48.8096
LeftForeArm  24.1834 -11.2513 -11.1183
LeftHand  -0.0854517 3.84401 5.17481
RightShoulder  1.27526 1.5001 20.1249
RightArm  -40.2122 14.9929 30.184
RightForeArm  30.493 -4.09863 -4.48697
RightHand  -0.239325 -4.2737 -24.1387
LeftUpLeg  3.20203 -0.020159 -8.00767
LeftLeg  15.5144 1.58438 1.98139
LeftFoot  -16.7623 0.328405 4.80567
LeftToes  -7.20997e-011 3.75522e-011 -2.80735e-011
851
root  65.9324 38.416 54.1384 1.10075 37.3451 1.96324
RightUpLeg  -18.9888 0.00308821 -1.46644
RightLeg  -0.372703 2.84842 0.337113
RightFoot  -8.70404 -0.254962 8.48598
RightToes  5.38607e-012 1.2921e-014 -6.02303e-014
Spine  -8.61077 -4.04982 -2.72576
Spine1  10.1704 -3.48949 -2.2091
HEad  29.7773 -4.84419 -3.72718
LeftShoulder1  1.60582 -3.0347 -19.0559
LeftArm  12.2307 -18.9141 -48.2274
LeftForeArm  23.5912 -11.6559 -10.9425
LeftHand  -0.0870359 3.80638 5.1815
RightShoulder  1.25743 1.35923 20.5694
RightArm  -39.9288 13.745 30.2766
RightForeArm  31.631 -3.64608 -4.17745
RightHand  -0.270142 -4.12001 -24.0207
LeftUpLeg  4.73701 -0.195893 -8.17967
LeftLeg  17.2251 2.33832 2.21563
LeftFoot  -18.8625 0.351929 3.62898
LeftToes  -7.20997e-011 3.75522e-011 -2.80735e-011
852
root  66.7154 38.3659 55.186 0.472748 36.3669 1.23634
RightUpLeg  -20.0068 0.147167 0.0134476
RightLeg  4.46452 5.7531 1.0634
RightFoot  -4.37917 -0.320172 4.76926
RightToes  5.38607e-012 1.2921e-014 -6.02303e-014
Spine  -8.50501 -3.9403 -1.70974
Spine1  10.5879 -3.57819 -1.93075
HEad  29.7851 -3.93913 -3.88778
LeftShoulder1  1.58324 -2.93398 -19.1061
LeftArm  12.7424 -17.0011 -47.2832
LeftForeArm  23.3664 -11.8043 -10.931
LeftHand  -0.0840229 3.91444 5.29081
RightShoulder  1.25169 1.25153 21.1139
RightArm  -39.0709 12.3301 30.5541
RightForeArm  32.4359 -3.69509 -3.67673
RightHand  -0.237644 -4.29808 -24.5177
LeftUpLeg  6.74075 -0.97692 -7.895
LeftLeg  18.0099 3.79442 2.50797
LeftFoot  -19.1809 0.242353 1.85633
LeftToes  -7.20997e-011 3.75522e-011 -2.80735e-011
853
root  67.5327 38.4488 56.2674 -0.266251 36.5692 -0.110245
RightUpLeg  -19.7513 2.73409 1.548
RightLeg  6.74597 5.3089 -0.33047
RightFoot  0.961305 -0.475446 4.46924
RightToes  5.38607e-012 1.2921e-014 -6.02303e-014
Spine  -9.13837 -4.35038 -0.539761
Spine1  11.5421 -4.41579 -0.838392
HEad  30.8577 -2.79773 -4.19365
LeftShoulder1  1.62398 -2.99619 -19.5327
LeftArm  12.9381 -14.1694 -46.1062
LeftForeArm  23.8371 -11.2996 -11.2759
LeftHand  -0.0787574 4.03304 5.25179
RightShoulder  1.14389 0.758538 21.813
RightArm  -37.843 10.376 30.7688
RightForeArm  33.073 -3.968 -3.0174
RightHand  -0.140624 -4.76971 -25.1727
LeftUpLeg  8.06792 -3.22858 -7.1616
LeftLeg  19.6451 5.4051 2.61265
LeftFoot  -18.2578 0.0566967 -0.873805
LeftToes  -7.20997e-011 3.75522e-011 -2.80735e-011
854
root  68.3851 38.5001 57.4035 -1.09225 37.0183 -1.79033
RightUpLeg  -19.329 2.28602 2.70282
RightLeg  9.21801 5.09502 0.427404
RightFoot  3.44861 -0.71743 5.7045
RightToes  5.38607e-012 1.2921e-014 -6.02303e-014
Spine  -9.64868 -4.66948 1.03606
Spine1  11.8827 -5.13502 0.180081
HEad  32.7598 -1.90716 -4.72003
LeftShoulder1  1.6119 -2.75056 -20.4392
LeftArm  11.859 -11.1951 -45.3517
LeftForeArm  26.212 -9.23823 -12.2797
LeftHand  -0.0733774 4.14108 5.15023
RightShoulder  0.997922 0.157765 22.4822
RightArm  -36.3171 6.75883 30.3805
RightForeArm  34.2179 -4.06432 -2.14127
RightHand  -0.142945 -4.77688 -26.0111
LeftUpLeg  7.60884 -3.18567 -5.37126
LeftLeg  24.3509 4.06461 2.34808
LeftFoot  -16.4861 -0.101241 -4.4504
LeftToes  -7.20997e-011 3.75522e-011 -2.80735e-011
855
root  69.172 38.5069 58.5124 -2.03236 36.757 -3.62646
RightUpLeg  -18.9177 1.08367 4.24892
RightLeg  12.2326 6.25614 1.80489
RightFoot  2.33444 -0.57641 4.93625
RightToes  5.38607e-012 1.2921e-014 -6.02303e-014
Spine  -9.37459 -4.56182 2.9495
Spine1  11.536 -5.20489 0.861208
HEad  34.2131 -1.30669 -5.00953
LeftShoulder1  1.55149 -2.41022 -21.0022
LeftArm  8.82509 -7.77603 -45.3831
LeftForeArm  29.9915 -5.97817 -13.2716
LeftHand  -0.055851 4.5668 5.04368
RightShoulder  0.850171 -0.429908 23.224
RightArm  -34.7612 1.75929 29.8138
RightForeArm  35.1726 -3.47239 -1.11735
RightHand  0.0644264 -5.67835 -26.9638
LeftUpLeg  4.7252 0.11459 -2.0372
LeftLeg  32.7612 0.351602 0.600859
LeftFoot  -12.155 0.0133288 -8.35107
LeftToes  -7.20997e-011 3.75522e-011 -2.80735e-011
856
root  69.8725 38.5499 59.5532 -2.69048 36.2565 -5.155
RightUpLeg  -18.0409 1.10403 5.85952
RightLeg  13.9587 6.64753 2.32827
RightFoot  1.18627 -0.25489 2.39488
RightToes  5.38607e-012 1.2921e-014 -6.02303e-014
Spine  -9.12529 -4.43252 4.4491
Spine1  11.717 -5.1753 1.51373
HEad  34.341 -0.455166 -4.67996
LeftShoulder1  1.45111 -2.08922 -20.7381
LeftArm  4.74282 -3.27244 -46.1767
LeftForeArm  33.7791 -3.45675 -13.3566
LeftHand  -0.0370953 5.02531 4.57304
RightShoulder  0.817134 -0.585391 23.7119
RightArm  -33.4956 -3.643 29.8903
RightForeArm  37.197 -2.93737 -0.357401
RightHand  0.0813648 -5.76267 -26.3139
LeftUpLeg  0.0407498 2.75784 1.04958
LeftLeg  42.711 -1.63302 -1.21883
LeftFoot  -4.39126 0.79719 -12.655
LeftToes  -7.20997e-011 3.75522e-011 -2.80735e-011
857
root  70.5308 38.5519 60.4822 -3.14587 36.0368 -6.18881
RightUpLeg  -17.1764 0.726516 6.9221
RightLeg  15.6852 6.89141 2.90132
RightFoot  -0.423645 -0.0161383 0.138603
RightToes  5.38607e-012 1.2921e-014 -6.02303e-014
Spine  -8.27555 -4.47297 5.67141
Spine1  11.6129 -5.18473 1.93949
HEad  33.7212 0.437403 -3.83759
LeftShoulder1  1.30762 -1.50907 -21.0138
LeftArm  4.03253 0.887287 -45.9792
LeftForeArm  34.6607 -2.21353 -13.5541
LeftHand  -0.0287134 5.26743 4.236
RightShoulder  0.728479 -0.932671 24.3643
RightArm  -32.8714 -8.4437 30.371
RightForeArm  38.9172 -2.62741 0.0188256
RightHand  0.116323 -5.92944 -25.7672
LeftUpLeg  -5.54031 3.69353 2.88515
LeftLeg  52.2522 -1.60791 -1.76526
LeftFoot  5.37534 2.26524 -15.5613
LeftToes  -7.20997e-011 3.75522e-011 -2.80735e-011
858
root  71.1943 38.5527 61.3868 -3.45404 35.8738 -6.59505
RightUpLeg  -16.0107 -0.149586 7.39332
RightLeg  17.4392 7.55629 3.49991
RightFoot  -2.80791 0.0527495 -0.962294
RightToes  5.38607e-012 1.2921e-014 -6.02303e-014
Spine  -7.38269 -4.48769 6.46951
Spine1  11.5622 -5.02628 2.00609
HEad  33.3712 1.22551 -2.93812
LeftShoulder1  1.15001 -0.815347 -21.8064
LeftArm  4.37608 4.50334 -45.155
LeftForeArm  34.9456 -0.86338 -13.9553
LeftHand  -0.0287133 5.26739 3.82024
RightShoulder  0.614477 -1.35599 25.1524
RightArm  -32.8057 -12.843 30.9541
RightForeArm  40.745 -3.02427 -0.024186
RightHand  0.211841 -6.34876 -25.9178
LeftUpLeg  -10.7353 4.12653 3.68152
LeftLeg  59.3469 -0.714503 -0.750602
LeftFoot  15.8797 3.40044 -14.3895
LeftToes  -7.20997e-011 3.75522e-011 -2.80735e-011
859
root  71.8701 38.6235 62.2912 -3.50015 35.4577 -6.30141
RightUpLeg  -14.2362 -0.622147 7.32028
RightLeg  18.3707 8.42061 3.67823
RightFoot  -5.00945 0.0411262 -1.35719
RightToes  5.38607e-012 1.2921e-014 -6.02303e-014
Spine  -6.47292 -4.35236 6.6557
Spine1  11.3744 -4.65616 1.66821
HEad  33.5861 2.09533 -2.23142
LeftShoulder1  0.954058 -0.0593072 -22.2766
LeftArm  3.93988 8.06853 -44.7587
LeftForeArm  35.7716 0.829808 -14.1959
LeftHand  -0.0225343 5.48223 3.90443
RightShoulder  0.535886 -1.63111 25.5954
RightArm  -34.1649 -17.541 32.3176
RightForeArm  40.7275 -3.31242 -0.695462
RightHand  0.463437 -7.40497 -26.5779
LeftUpLeg  -14.8322 4.81738 3.68889
LeftLeg  64.3134 0.496117 1.78674
LeftFoot  12.5752 2.33479 -11.3604
LeftToes  -7.20997e-011 3.75522e-011 -2.80735e-011
860
root  72.5592 38.7357 63.1767 -3.35675 35.0184 -5.77081
RightUpLeg  -12.3822 -0.990616 6.90063
RightLeg  18.983 9.52071 3.89783
RightFoot  -6.66127 0.0397416 -2.0756
RightToes  5.38607e-012 1.2921e-014 -6.02303e-014
Spine  -5.82021 -4.20064 6.57208
Spine1  11.2153 -4.34993 1.38028
HEad  34.1622 3.2246 -1.94747
LeftShoulder1  0.762536 0.65765 -22.744
LeftArm  2.97657 11.8925 -44.4132
LeftForeArm  37.0757 2.10713 -14.1739
LeftHand  -0.0144281 5.78601 3.76491
RightShoulder  0.474498 -1.83444 25.7919
RightArm  -35.6998 -21.9957 33.922
RightForeArm  36.876 -3.76723 -1.4582
RightHand  0.421299 -7.18108 -27.1385
LeftUpLeg  -18.3034 5.2774 3.39618
LeftLeg  66.2263 1.50433 4.46179
LeftFoot  6.31345 1.41706 -9.35787
LeftToes  -7.20997e-011 3.75522e-011 -2.80735e-011
861
root  73.2736 38.8093 64.0333 -2.87537 34.6355 -4.95573
RightUpLeg  -10.5598 -1.19573 6.23543
RightLeg  19.2305 10.0779 3.79379
RightFoot  -8.64414 -0.00311542 -2.35115
RightToes  5.38607e-012 1.2921e-014 -6.02303e-014
Spine  -5.36103 -4.10114 6.19613
Spine1  10.9423 -4.15745 0.870852
HEad  34.4775 4.54945 -2.10787
LeftShoulder1  0.557816 1.39989 -23.2444
LeftArm  2.44593 15.5944 -43.9842
LeftForeArm  37.592 2.99268 -14.1864
LeftHand  -0.0112411 5.94741 3.55358
RightShoulder  0.396401 -2.08242 25.8413
RightArm  -37.4445 -25.6642 35.3858
RightForeArm  33.9139 -4.45697 -2.40334
RightHand  0.425782 -7.20595 -27.0588
LeftUpLeg  -21.4832 5.35371 2.82571
LeftLeg  65.2397 2.27287 6.06887
LeftFoot  3.46995 1.00697 -7.90163
LeftToes  -7.20997e-011 3.75522e-011 -2.80735e-011
862
root  73.9865 38.839 64.8541 -2.41998 34.47 -4.38695
RightUpLeg  -9.02441 -1.63369 5.58808
RightLeg  19.6147 10.587 3.94502
RightFoot  -10.3439 -0.0434943 -3.03542
RightToes  5.38607e-012 1.2921e-014 -6.02303e-014
Spine  -4.99547 -4.02303 5.83343
Spine1  10.7351 -4.10084 0.62715
HEad  34.4811 5.89672 -2.61034
LeftShoulder1  0.378567 2.03169 -23.7221
LeftArm  1.3916 18.9241 -43.877
LeftForeArm  38.5045 4.07254 -14.0596
LeftHand  -0.0104276 6.00232 3.46077
RightShoulder  0.349209 -2.23016 25.8159
RightArm  -38.3625 -28.6898 36.3661
RightForeArm  29.4683 -5.26098 -3.03844
RightHand  0.437772 -7.29659 -26.5514
LeftUpLeg  -24.1169 5.24542 2.42676
LeftLeg  61.6452 2.99352 6.601
LeftFoot  2.64975 0.505932 -4.25388
LeftToes  -7.20997e-011 3.75522e-011 -2.80735e-011
